<?xml version="1.0" encoding="utf-8"?>
<!DOCTYPE svg PUBLIC "-//W3C//DTD SVG 20010904//EN" "http://www.w3.org/TR/2001/REC-SVG-20010904/DTD/svg10.dtd">
<svg version="1.0" xmlns="http://www.w3.org/2000/svg" width="350px" height="224px" viewBox="0 0 350 224" preserveAspectRatio="xMidYMid meet">
 <g fill="#ffffff">
  <path d="M217 215.5 c0 -2.8 0.4 -3.5 2 -3.5 1.3 0 2 -0.7 2 -2 0 -1.1 0.7 -2 1.5 -2 0.8 0 1.5 0.5 1.5 1 0 0.6 0.9 1 2 1 1.5 0 2 0.7 2 2.5 0 1.8 -0.5 2.5 -2 2.5 -1.3 0 -2 0.7 -2 2 0 1.6 -0.7 2 -3.5 2 -3.3 0 -3.5 -0.2 -3.5 -3.5z"/>
  <path d="M58.9 215.4 c-2.5 -2.7 -2.5 -5.4 0.1 -5.4 1.7 0 1.9 -0.5 1.4 -2.5 -0.4 -1.6 0 -3.4 1 -5 1.4 -2.2 2.4 -2.5 7.1 -2.5 3 0 5.5 -0.3 5.5 -0.7 0 -0.5 0.9 -7.1 2 -14.8 1.2 -7.7 2.3 -17.4 2.6 -21.5 0.2 -4.1 1.1 -12 1.9 -17.5 0.8 -5.5 1.9 -15.4 2.5 -22 3.3 -37.9 8.6 -48.6 31.6 -63.9 4.9 -3.3 9.4 -6.4 9.9 -7 0.6 -0.6 4.2 -3.3 8 -6 3.9 -2.6 11.3 -7.9 16.5 -11.6 5.2 -3.8 14 -9.7 19.5 -13.2 l10 -6.3 12.3 -0.1 c11.5 -0.1 12.2 0 12.2 1.8 0 1.1 -0.9 3.1 -2 4.5 -2.3 3 -1.4 5.7 2.6 7.5 2 0.9 3.5 0.8 7.3 -0.6 3.8 -1.3 7.3 -1.7 15 -1.4 5.6 0.2 10.1 0.5 10.1 0.8 0 0.3 2.7 2.1 6.1 4 4.2 2.4 7 4.9 9.3 8.5 4.5 6.8 4.7 8.1 3 19.3 l-1.5 9.7 6.6 6.3 c6.1 5.8 6.5 6.5 4.9 7.6 -1.7 1.3 -1.7 4 0.2 10.3 0.5 1.7 0.1 2.5 -1.2 3 -1.1 0.4 -4.4 2.8 -7.5 5.3 -7.4 6.2 -15.1 8 -23.6 5.5 -4.7 -1.4 -6.4 -1.4 -10.6 -0.4 -7.6 1.8 -20.7 0.7 -26.8 -2.4 -5.3 -2.6 -6.2 -2.3 -5.5 1.9 1.6 8.9 2.9 14.1 3.8 15.2 0.8 0.9 0.2 1.2 -2.7 1.2 -5.7 0 -22.8 -2.1 -24.6 -3.1 -1.4 -0.7 -1.7 -3.3 -2.1 -16.6 -0.4 -14.7 -0.6 -16.2 -3.1 -20.9 -6.2 -12.2 -18 -16.5 -29.4 -10.8 -14.3 7.1 -22.6 27.4 -17.9 43.6 3.4 11.7 14.2 23.5 23.6 25.7 2.5 0.6 14 2.2 25.7 3.5 l21.1 2.4 4.4 4.6 c2.6 2.7 5.4 4.6 6.6 4.6 2.6 0 2.9 2.6 0.4 3.2 -1.4 0.4 -2.2 2.7 -3.7 10.4 -1.1 5.4 -2 10.6 -2.1 11.5 -0.1 0.9 -0.4 2.2 -0.8 2.8 -0.4 0.7 -0.2 1.8 0.4 2.6 1 1.3 0.8 1.5 -1.5 1.5 -3.6 0 -12.4 -6.4 -25.4 -18.4 -20 -18.5 -34.3 -22.2 -52.6 -13.6 -15.8 7.5 -26.1 26.8 -23.5 43.7 0.6 3.4 1.5 7.4 2 8.8 0.6 1.5 1 4.1 1 5.9 l0 3.3 -14.1 -0.1 c-12.8 -0.1 -14.2 -0.3 -16 -2.2z m171.5 -135 c2 -1.3 1.9 -1.4 -1 -1.4 -5.3 0 -7.4 -2.4 -7.4 -8.5 0 -6.3 1.3 -7.5 7.9 -7.5 5.1 0 7.1 2 7.1 7.2 l0 4.1 2.4 -2.2 c3.6 -3.4 5.8 -8.7 5.1 -11.9 -1.3 -6.1 -9.6 -11.9 -14.5 -10 -3.1 1.1 -14.6 12.3 -16.6 16 -2 3.8 -1.8 5.8 1 9.9 4.3 6.4 10.7 8.1 16 4.3z"/>
  <path d="M265 212 c-1.3 -2.6 -2 -5.5 -1.8 -7.8 0.3 -3.6 0.4 -3.7 5 -4 4.6 -0.3 4.7 -0.2 6.8 3.8 1.3 2.6 2 5.5 1.8 7.8 -0.3 3.6 -0.4 3.7 -5 4 -4.6 0.3 -4.7 0.2 -6.8 -3.8z"/>
 </g>
 <g fill="#babdbf">
  <path d="M5.2 221.3 c-4.6 -2.2 -5.3 -5.9 -1.8 -9 2.7 -2.3 2.9 -2.3 29.3 -2.3 25.4 0 26.8 0.1 28.8 2 1.9 1.8 3.7 2.1 13.3 2.3 10.1 0.2 11.1 0 10.6 -1.5 -0.4 -1.5 -0.1 -1.6 2.8 -0.7 1.9 0.5 29.7 0.9 66.2 0.9 l63 0 2.9 -2.8 c2 -1.8 3.1 -2.3 3.4 -1.4 0.7 1.9 20.2 1.7 20.9 -0.3 0.9 -2.3 2.1 -1.8 3.3 1.5 l1 3 22.1 0 22.2 0 1.1 -3 c1.2 -3.2 3.1 -3.9 4.1 -1.5 0.4 1.3 4 1.5 23 1.5 22.1 0 22.5 0 25.2 2.3 3.6 3.1 2.8 6.8 -2 9.1 -3.1 1.5 -18.5 1.6 -169.8 1.6 -150.8 0 -166.6 -0.2 -169.6 -1.7z"/>
 </g>
 <g fill="#ffb900">
  <path d="M272.2 201.7 c-1.5 -1.6 -2.2 -3.6 -2.2 -6.5 l0 -4.2 -3.8 0 c-2.7 0 -4.5 0.7 -6 2.3 -7 7.4 -8.6 8.7 -10.7 8.7 -2.1 0 -2.3 -0.4 -1.9 -3.2 1 -7.2 4.5 -44.9 5.1 -55.5 0.3 -6.2 0.9 -11.3 1.2 -11.3 0.3 0 4 6 8.1 13.3 4.1 7.2 10.5 18.4 14.2 24.7 3.8 6.3 7.8 13.2 9.1 15.3 1.2 2.1 3.7 5.9 5.4 8.3 l3.3 4.4 -3.4 0 c-1.9 0 -4.2 -0.7 -5 -1.6 -1.5 -1.4 -1.6 -1.1 -1.6 3 l0 4.6 -4.8 0 c-3.8 0 -5.3 -0.5 -7 -2.3z"/>
 </g>
 <g fill="#80ba00">
  <path d="M248.7 213.3 c-0.4 -0.3 -0.7 -2.3 -0.7 -4.3 0 -5.4 4.1 -9 10.3 -9 l4.7 0 0 4.2 c0 5.9 -3.8 9.8 -9.5 9.8 -2.3 0 -4.5 -0.3 -4.8 -0.7z"/>
  <path d="M283.7 213.3 c-0.9 -0.8 -0.7 -10 0.2 -13.3 0.6 -2.2 1.2 -2.5 5.6 -2.5 l5 0 -0.1 6 c-0.1 8.2 -1.5 10.5 -6.3 10.5 -2.1 0 -4.1 -0.3 -4.4 -0.7z"/>
 </g>
 <g fill="#0071c6">
  <path d="M245 213.5 c-1.8 -4.8 1.1 -13.2 5.6 -16.1 1.4 -1 3.1 -2.9 3.9 -4.4 1.7 -3.4 7.2 -6.1 12.2 -6 2.1 0 6.2 -0.3 9 -0.6 5.1 -0.6 5.4 -0.5 9.5 3.4 2.4 2.2 5.8 5.3 7.6 6.9 4.3 3.7 6.6 11.2 4.8 15.8 l-1.2 3 -25.2 0.3 -25.2 0.2 -1 -2.5z m28.5 -1.5 c0.9 -1.4 -3.3 -9 -5 -9 -2.5 0 -2.6 1.8 -0.5 6 2 3.8 4.2 5.1 5.5 3z m-16.3 -3.7 c3.2 -3.1 3.6 -5.3 1 -5.3 -2.3 0 -7.6 5.5 -6.8 6.9 1.1 1.8 2.8 1.3 5.8 -1.6z m33.7 -2.2 c0.9 -3 1 -4.6 0.3 -5.3 -1.9 -1.9 -4 0 -4.7 4.1 -1.2 7.4 2.1 8.3 4.4 1.2z m-9.9 -6.8 c0 -2.3 -3.9 -6.3 -6.2 -6.3 -2.5 0 -2.3 2.9 0.4 5.7 2.5 2.7 5.8 3.1 5.8 0.6z"/>
 </g>
 <g fill="#000000">
  <path d="M85.4 212.4 c-0.8 -2 -2 -7.3 -2.6 -11.8 -1.3 -9.7 0.5 -20.7 4.8 -29.2 8 -15.9 27.8 -25.6 46 -22.6 10.7 1.8 19.6 6.7 30.9 17.3 16.2 15 30.5 24.9 34.1 23.5 1 -0.4 1.4 -2.4 1.4 -7.6 0 -7.3 1.7 -12.3 4.9 -14.7 2.8 -2.1 8.6 -2.5 12.3 -1 5.9 2.5 6.7 5.6 6.8 27.2 0.2 18.4 0.1 19 -2 20.7 -2.1 1.7 -6.5 1.8 -68.7 1.8 l-66.4 0 -1.5 -3.6z"/>
  <path d="M185.2 154.4 l-4.4 -4.6 -21.1 -2.4 c-11.7 -1.3 -23.2 -2.9 -25.7 -3.5 -9.4 -2.2 -20.2 -14 -23.6 -25.7 -1.2 -3.9 -1.5 -8.3 -1.2 -15.6 0.3 -8.8 0.8 -11 3.5 -16.7 6.2 -13.4 16 -20.4 28.2 -20.2 10.8 0.1 18.1 4.4 22.8 13.7 2.5 4.7 2.7 6.2 3.1 20.9 0.4 13.3 0.7 15.9 2.1 16.6 0.9 0.5 6.2 1.4 11.8 2 5.6 0.7 11.6 1.9 13.3 2.7 1.7 0.9 5.8 5.2 9 9.6 5.7 7.6 6 8.3 6 13.8 0 4.2 -0.5 6.4 -2 8.2 -2.7 3.5 -8 5.8 -13.1 5.8 -3.7 0 -4.8 -0.5 -8.7 -4.6z"/>
  <path d="M261.5 96 c-1.3 -2.1 -2.2 -11.5 -1.4 -13.7 1.3 -3.4 4 -2.8 8.8 2.1 l4.2 4.3 -4.7 4.2 c-4.9 4.3 -5.9 4.7 -6.9 3.1z"/>
  <path d="M217.2 84.3 c-5 -2.4 -8.2 -7.8 -8.2 -13.6 0 -6.4 1.5 -8.9 9.7 -16.9 7.7 -7.4 11.7 -8.9 18.3 -6.9 4.1 1.2 8.7 5.3 10.1 8.9 1.4 3.6 1.1 10.1 -0.7 13.7 -1.9 4 -12.2 14.1 -15.9 15.5 -3.9 1.5 -9.5 1.2 -13.3 -0.7z m16.3 -11.4 c1.1 -1.8 -0.4 -5.7 -2.5 -6.4 -5 -1.6 -8.2 4.8 -3.8 7.9 2.1 1.5 4.9 0.9 6.3 -1.5z"/>
  <path d="M201.3 32.5 c-3.7 -1.6 -5.3 -4.2 -5.3 -8.4 0 -3.4 0.9 -4.5 12.7 -15.5 6.9 -6.4 8.7 -7.6 11.6 -7.6 5.4 0 8.9 5.3 13.4 20.5 0.8 2.8 2.1 6 3 7.3 2.7 4.3 1.1 5.3 -5.1 3.1 -7 -2.4 -11.7 -2.4 -18.9 0.1 -6.6 2.3 -7.2 2.4 -11.4 0.5z"/>
 </g>
</svg>