<?xml version="1.0" encoding="UTF-8" standalone="no"?>
<svg
   xmlns:dc="http://purl.org/dc/elements/1.1/"
   xmlns:cc="http://creativecommons.org/ns#"
   xmlns:rdf="http://www.w3.org/1999/02/22-rdf-syntax-ns#"
   xmlns:svg="http://www.w3.org/2000/svg"
   xmlns="http://www.w3.org/2000/svg"
   xmlns:sodipodi="http://sodipodi.sourceforge.net/DTD/sodipodi-0.dtd"
   xmlns:inkscape="http://www.inkscape.org/namespaces/inkscape"
   version="1.0"
   width="660.000000pt"
   height="200.000000pt"
   viewBox="0 0 660.000000 200.000000"
   preserveAspectRatio="xMidYMid meet"
   id="svg70"
   sodipodi:docname="yhh_small.svg"
   inkscape:version="1.0.2-2 (e86c870879, 2021-01-15)">
  <metadata
     id="metadata76">
    <rdf:RDF>
      <cc:Work
         rdf:about="">
        <dc:format>image/svg+xml</dc:format>
        <dc:type
           rdf:resource="http://purl.org/dc/dcmitype/StillImage" />
        <dc:title />
      </cc:Work>
    </rdf:RDF>
  </metadata>
  <defs
     id="defs74" />
  <sodipodi:namedview
     pagecolor="#ffffff"
     bordercolor="#666666"
     borderopacity="1"
     objecttolerance="10"
     gridtolerance="10"
     guidetolerance="10"
     inkscape:pageopacity="0"
     inkscape:pageshadow="2"
     inkscape:window-width="1920"
     inkscape:window-height="1018"
     id="namedview72"
     showgrid="false"
     inkscape:zoom="1.2011364"
     inkscape:cx="440"
     inkscape:cy="133.33333"
     inkscape:window-x="-6"
     inkscape:window-y="-6"
     inkscape:window-maximized="1"
     inkscape:current-layer="g68"
     inkscape:document-rotation="0" />
  <g
     transform="translate(0.000000,200.000000) scale(0.100000,-0.100000)"
     fill="#000000"
     stroke="none"
     id="g68">
    <path
       d="M950 1905 c19 -19 36 -35 38 -35 8 0 -53 69 -62 69 -6 1 5 -15 24 -34z"
       id="path2"
       style="fill:#800000" />
    <path
       d="M1010 1933 c8 -3 24 -13 35 -22 20 -16 20 -16 1 7 -11 12 -26 22 -35 21 -14 0 -14 -1 -1 -6z"
       id="path4"
       style="fill:#800000" />
    <path
       d="M1250 1924 c0 -3 25 -34 56 -67 96 -107 154 -254 154 -393 0 -108 -9 -117 -35 -35 -18 56 -69 161 -78 161 -1 0 -2 -42 -2 -93 0 -84 -3 -99 -30 -152 -63 -123 -177 -176 -450 -210 l-60 -8 35 -10 c51 -14 205 -2 282 22 138 44 223 131 241 251 6 39 14 70 18 70 22 0 26 -188 4 -229 -21 -41 -99 -107 -159 -134 -66 -31 -114 -42 -264 -62 -68 -9 -147 -25 -176 -36 -64 -23 -128 -76 -160 -132 -49 -83 -52 -231 -7 -313 20 -36 21 -37 16 -9 -37 175 -27 246 45 329 52 58 115 85 243 102 194 25 264 41 332 75 187 92 284 294 242 503 -21 103 -74 213 -133 276 -26 28 -44 53 -40 57 10 10 113 -25 190 -65 139 -72 242 -195 292 -345 35 -109 48 -120 40 -36 -22 226 -193 414 -431 474 -58 15 -165 21 -165 9z"
       id="path6"
       style="fill:#550000" />
    <path
       d="M1040 1870 c0 -5 5 -10 11 -10 5 0 7 5 4 10 -3 6 -8 10 -11 10 -2 0 -4 -4 -4 -10z"
       id="path8"
       style="fill:#800000" />
    <path
       d="M680 1856 c-122 -35 -231 -106 -331 -214 -136 -148 -210 -329 -225 -550 -4 -66 -14 -118 -31 -162 -31 -81 -41 -205 -23 -281 33 -140 138 -274 240 -304 18 -6 6 11 -46 61 -77 76 -122 154 -149 259 -18 70 -20 172 -4 212 11 26 13 22 31 -67 11 -52 24 -99 30 -105 8 -7 9 -4 3 10 -14 38 -18 329 -5 401 33 189 86 316 184 441 118 150 315 263 460 263 114 0 199 -60 256 -180 l31 -65 -6 50 c-12 98 -63 168 -158 217 -52 27 -188 34 -257 14z"
       id="path10"
       style="fill:#550000" />
    <path
       d="M1083 1840 c2 -8 13 -20 24 -25 12 -6 28 -17 37 -24 21 -18 21 -7 -1 18 -9 11 -21 18 -25 14 -5 -3 -16 3 -24 13 -11 13 -14 14 -11 4z"
       id="path12"
       style="fill:#800000" />
    <path
       d="M1176 1813 c-6 -14 -5 -15 5 -6 7 7 10 15 7 18 -3 3 -9 -2 -12 -12z"
       id="path14"
       style="fill:#800000" />
    <path
       d="M1210 1821 c0 -5 7 -12 16 -15 14 -5 15 -4 4 9 -14 17 -20 19 -20 6z"
       id="path16"
       style="fill:#800000" />
    <path
       d="M1160 1765 c0 -5 7 -16 15 -25 9 -10 17 -27 20 -38 2 -11 9 -30 15 -41 11 -21 -3 -31 -15 -11 -3 6 -11 10 -17 10 -6 0 2 -10 17 -21 19 -16 26 -28 22 -45 -3 -15 1 -24 9 -24 17 0 27 17 15 24 -5 4 -9 20 -9 37 1 17 -4 34 -11 38 -6 4 -13 17 -16 29 -4 22 -45 82 -45 67z"
       id="path18"
       style="fill:#800000" />
    <path
       d="M1100 1736 c0 -2 8 -10 18 -17 15 -13 16 -12 3 4 -13 16 -21 21 -21 13z"
       id="path20"
       style="fill:#800000" />
    <path
       d="M1230 1700 c-8 -5 -10 -10 -5 -10 6 0 17 5 25 10 8 5 11 10 5 10 -5 0 -17 -5 -25 -10z"
       id="path22"
       style="fill:#800000" />
    <path
       d="M1274 1674 c-18 -14 -18 -14 6 -3 31 14 36 19 24 19 -6 0 -19 -7 -30 -16z"
       id="path24"
       style="fill:#800000" />
    <path
       d="M1301 1644 c0 -11 3 -14 6 -6 3 7 2 16 -1 19 -3 4 -6 -2 -5 -13z"
       id="path26"
       style="fill:#800000" />
    <path
       d="M846 1637 c-12 -9 -17 -23 -14 -47 2 -28 9 -37 31 -44 38 -14 61 2 65 45 4 35 -16 59 -48 59 -9 0 -24 -6 -34 -13z"
       id="path28"
       style="fill:#a02c2c" />
    <path
       d="m 2267.1445,1597.5447 c -45.999,-5.3252 -59.5896,-18.1057 -41.8173,-40.4716 11.4998,-13.8456 51.2261,-15.9757 268.6758,-15.9757 141.1332,0 254.0398,-4.2601 251.949,-8.5203 -3.1363,-7.4553 -109.7703,-103.3091 -193.4048,-174.667 l -34.4992,-28.7561 -83.6345,31.9513 c -87.8163,31.9512 -129.6335,38.3415 -141.1333,20.2358 -10.4543,-18.1058 14.6361,-41.5367 80.4982,-75.6181 33.4538,-17.0406 60.6351,-35.1464 60.6351,-39.4065 0,-4.2602 -29.2721,-27.6911 -65.8622,-53.2522 -114.9974,-79.8782 -118.1337,-83.0733 -102.4523,-102.2441 22.9995,-28.7561 47.0444,-20.2358 136.9515,52.1871 47.0444,37.2765 94.0888,71.3579 104.5431,74.553 19.8632,6.3903 114.9975,-29.8212 264.4941,-100.114 51.2262,-24.496 108.7249,-43.6667 128.5881,-43.6667 31.3629,0 35.5446,3.1951 35.5446,26.626 0,30.8863 -21.954,43.6668 -203.859,117.1547 -68.9985,27.6911 -128.5881,54.3172 -133.8152,57.5123 -10.4544,10.6504 103.4976,107.5693 203.859,175.732 44.9536,29.8212 83.6345,60.7075 86.7708,68.1628 3.1363,7.4553 -7.318,25.561 -22.9995,40.4716 l -27.1812,25.561 -267.6304,-2.1301 c -147.4058,0 -284.3572,-3.1951 -304.2204,-5.3252 z"
       id="path30"
       style="fill:#c83737;stroke-width:1.05519" />
    <path
       d="m 5305,1614 c 0,-3 9,-17 20,-31 11,-14 20,-40 20,-57 0,-104 -208,-388 -382,-523 -58,-44 -71,-63 -44,-63 20,0 153,91 214,145 55,49 59,49 87,-18 28,-67 16,-371 -19,-471 -16,-45 -7,-96 27,-166 26,-54 53,-64 64,-23 4,15 7,159 7,318 1,318 -3,347 -61,407 l -26,27 61,65 c 65,70 118,144 172,239 42,75 37,98 -30,132 -45,23 -110,34 -110,19 z"
       id="path32" />
    <path
       d="m 3545,1595 c 0,-4 7,-20 16,-37 11,-20 14,-45 11,-70 -5,-36 -2,-41 26,-59 39,-23 41,-23 61,-3 19,18 21,73 4,109 -16,35 -118,86 -118,60 z"
       id="path34" />
    <path
       d="m 4430,1593 c -11,-3 -92,-29 -180,-58 -88,-30 -197,-59 -242,-66 -46,-8 -83,-16 -83,-19 0,-4 11,-17 25,-30 35,-33 84,-24 304,50 99,34 189,60 198,58 14,-3 17,-12 15,-43 -8,-97 -109,-372 -171,-464 -7,-12 -20,-4 -65,37 -127,115 -294,182 -356,142 -13,-9 -13,-11 0,-20 8,-5 28,-10 44,-10 15,0 54,-14 86,-31 63,-33 240,-182 240,-202 0,-7 -23,-42 -50,-79 -78,-103 -228,-215 -328,-244 -55,-16 -61,-34 -12,-34 111,0 314,124 405,249 17,22 35,40 40,40 6,0 35,-32 65,-70 89,-114 239,-253 312,-288 119,-58 232,-65 264,-16 23,36 14,48 -52,69 -146,46 -329,163 -459,293 l -85,86 26,41 c 105,171 239,529 215,574 -18,34 -94,50 -156,35 z"
       id="path36" />
    <path
       d="m 5695,1578 c 1,-13 5,-43 10,-68 7,-40 -11,-466 -21,-474 -11,-7 -130,-56 -164,-66 -48,-15 -68,-30 -39,-30 21,0 154,32 186,45 16,6 18,-4 16,-131 -3,-160 6,-192 74,-261 87,-89 210,-117 478,-111 195,5 257,19 309,67 28,26 31,35 31,91 0,58 -20,148 -39,179 -16,24 -29,2 -36,-59 -4,-33 -17,-79 -28,-102 -35,-69 -76,-79 -322,-75 -222,4 -268,14 -323,68 -52,51 -63,97 -60,243 2,102 6,130 18,137 8,4 63,31 121,59 110,53 292,181 347,245 47,53 40,100 -18,130 -42,22 -48,19 -56,-21 -8,-43 -62,-117 -129,-174 -53,-47 -253,-180 -268,-180 -6,0 -7,20 -3,48 24,188 34,381 20,417 -8,19 -55,45 -84,45 -14,0 -20,-6 -20,-22 z"
       id="path38" />
    <path
       d="M1135 1550 c3 -5 8 -10 11 -10 2 0 4 5 4 10 0 6 -5 10 -11 10 -5 0 -7 -4 -4 -10z"
       id="path40"
       style="fill:#800000" />
    <path
       d="M1034 1540 c-35 -14 -39 -30 -7 -30 33 0 46 -8 61 -35 14 -28 27 -145 15 -145 -5 0 -59 20 -121 45 -124 50 -143 54 -118 26 23 -25 121 -76 172 -90 23 -6 47 -18 54 -25 9 -12 6 -18 -20 -31 -18 -9 -30 -19 -27 -21 12 -12 89 40 113 76 15 22 32 40 38 40 6 0 12 11 12 25 1 14 1 25 -1 25 -1 0 -16 -23 -34 -51 -33 -54 -49 -61 -31 -15 22 58 0 146 -49 195 -23 23 -26 24 -57 11z"
       id="path42"
       style="fill:#800000" />
    <path
       d="M1185 1520 c10 -11 20 -20 23 -20 3 0 -3 9 -13 20 -10 11 -20 20 -23 20 -3 0 3 -9 13 -20z"
       id="path44"
       style="fill:#800000" />
    <path
       d="M1214 1481 c-4 -23 -10 -38 -15 -35 -5 3 -6 -2 -3 -11 5 -12 9 -13 21 -4 7 7 12 17 10 23 -2 6 0 21 4 33 5 13 4 25 -1 28 -5 3 -13 -12 -16 -34z"
       id="path46"
       style="fill:#800000" />
    <path
       d="M1237 1458 c2 -5 13 -8 24 -8 10 0 19 3 19 8 0 4 -11 7 -24 7 -13 0 -22 -3 -19 -7z"
       id="path48"
       style="fill:#800000" />
    <path
       d="M1291 1414 c0 -11 3 -14 6 -6 3 7 2 16 -1 19 -3 4 -6 -2 -5 -13z"
       id="path50"
       style="fill:#800000" />
    <path
       d="M1870 1423 c0 -4 4 -24 10 -43 5 -19 13 -62 16 -95 3 -33 7 -73 9 -90 2 -16 -1 -64 -6 -105 -24 -193 -173 -366 -391 -455 -96 -39 -106 -48 -48 -39 147 22 297 118 397 253 2 2 5 2 8 -1 7 -7 -49 -177 -74 -225 -67 -130 -303 -256 -524 -280 -87 -9 -79 -23 13 -23 95 0 206 27 300 73 89 44 89 44 55 7 -117 -126 -338 -230 -491 -230 -48 0 -74 6 -122 31 -75 37 -117 86 -139 159 -31 109 -31 109 -32 50 -1 -100 62 -195 164 -248 40 -21 69 -27 150 -31 l100 -6 -65 -15 c-96 -22 -302 -17 -405 9 -166 43 -308 134 -420 268 -32 40 -61 70 -63 68 -10 -9 86 -142 138 -193 109 -107 253 -177 413 -202 96 -16 277 -8 367 15 252 66 456 241 605 520 55 103 81 174 90 242 6 47 6 47 -10 23 -15 -24 -15 -23 -9 25 3 28 12 73 19 101 32 126 26 267 -16 380 -18 48 -39 79 -39 57z"
       id="path52"
       style="fill:#550000" />
    <path
       d="M1263 1364 c-13 -14 -18 -24 -11 -22 10 4 45 48 37 48 -2 0 -14 -12 -26 -26z"
       id="path54"
       style="fill:#800000" />
    <path
       d="M787 1339 c-49 -40 -87 -116 -87 -171 0 -53 16 -112 34 -127 11 -9 12 1 8 59 -5 77 13 135 69 217 44 64 36 72 -24 22z"
       id="path56"
       style="fill:#550000" />
    <path
       d="m 3165,1200 c -27,-27 -26,-71 3,-98 48,-45 117,-14 117,52 0,60 -77,89 -120,46 z"
       id="path58"
       style="fill:#aa0000" />
    <path
       d="m 3491,1098 c -3,-24 -8,-78 -11,-121 -3,-42 -17,-135 -30,-205 -43,-220 -30,-303 43,-287 37,8 116,91 155,164 25,45 61,160 53,168 -2,2 -24,-25 -49,-60 -50,-70 -100,-117 -123,-117 -12,0 -14,29 -8,203 7,198 1,297 -16,297 -5,0 -11,-19 -14,-42 z"
       id="path60" />
    <path
       d="m 2389.7824,1034.589 c -92.9877,-4.2054 -180.8662,-11.5648 -196.1938,-15.7702 -34.7427,-9.4621 -36.7864,-29.4378 -5.1092,-52.56745 19.415,-14.71889 57.2232,-15.77024 309.6183,-9.46214 171.6696,4.20539 293.2689,3.15404 303.4873,-2.1027 14.3058,-8.41079 -7.1529,-31.54048 -121.5993,-130.36729 -94.0095,-83.05659 -145.1016,-119.8538 -160.4293,-118.80246 -12.2621,1.05135 -61.3105,15.77024 -109.3372,33.64318 -97.075,35.74587 -141.0143,41.00261 -150.2109,16.82158 -8.1747,-25.23238 22.4806,-52.56745 100.1406,-90.41602 38.8301,-18.92429 70.5072,-37.84857 70.5072,-42.05397 0,-5.25674 -24.5242,-27.33507 -53.1358,-49.41341 -29.6335,-22.07833 -81.7475,-60.97825 -114.4464,-86.21063 l -60.2887,-45.20801 22.4805,-19.97563 c 13.284,-10.51349 30.6553,-18.92429 38.83,-18.92429 8.1748,0 67.4416,41.00262 131.8177,90.41603 67.4417,53.61881 125.6867,90.41602 138.9707,90.41602 28.6116,0 137.9487,-44.15666 302.4654,-123.00784 95.0314,-45.20802 132.8396,-58.87555 162.473,-55.72151 33.7208,3.15405 38.8301,7.35945 41.8956,31.54048 3.0655,25.23238 -3.0655,31.54047 -49.0485,55.7215 -50.0703,26.28373 -220.718,98.82682 -318.8149,135.62404 -27.5898,10.51349 -49.0485,24.18103 -48.0266,30.48912 0,18.92429 157.3638,148.24023 263.6354,218.68062 101.1624,67.28635 110.359,84.10793 67.4416,125.11058 -42.9174,41.0026 -176.7788,48.362 -567.1227,31.5404 z"
       id="path62"
       style="fill:#d40000;stroke-width:1.03649" />
    <path
       d="M1286 889 c-10 -86 -35 -138 -97 -204 -55 -59 -56 -64 -6 -39 83 42 131 118 131 209 0 33 -4 68 -10 79 -9 15 -12 7 -18 -45z"
       id="path64"
       style="fill:#550000" />
    <path
       d="M860 728 c-29 -49 -34 -97 -13 -158 20 -60 45 -81 83 -70 l25 8 -32 11 c-41 16 -57 55 -51 131 2 33 7 62 10 66 4 3 60 -27 125 -66 115 -70 117 -71 78 -30 -43 44 -176 140 -194 140 -6 0 -20 -14 -31 -32z"
       id="path66"
       style="fill:#550000" />
  </g>
</svg>
