<?xml version="1.0" standalone="no"?>
<!DOCTYPE svg PUBLIC "-//W3C//DTD SVG 20010904//EN"
 "http://www.w3.org/TR/2001/REC-SVG-20010904/DTD/svg10.dtd">
<svg version="1.0" xmlns="http://www.w3.org/2000/svg"
 width="1320.000000pt" height="400.000000pt" viewBox="0 0 1320.000000 400.000000"
 preserveAspectRatio="xMidYMid meet">
<g transform="translate(0.000000,400.000000) scale(0.100000,-0.100000)"
fill="#000000" stroke="none">
<path d="M1905 3882 c-33 -1 -64 -8 -70 -13 -7 -7 14 -33 64 -79 83 -77 136
-109 154 -91 6 6 21 11 34 11 29 0 95 -68 89 -92 -3 -15 3 -18 35 -18 29 0 44
-7 63 -27 25 -27 26 -54 1 -33 -7 6 -32 12 -56 15 -27 2 -50 11 -60 23 -8 11
-36 29 -62 40 -51 23 -61 42 -22 42 14 0 25 5 25 11 0 15 -78 5 -94 -11 -14
-14 9 -33 82 -66 28 -13 52 -29 52 -36 0 -7 18 -41 40 -76 43 -68 81 -92 143
-92 22 0 41 -8 54 -22 44 -48 54 -98 15 -70 -21 15 -55 30 -87 38 -21 5 -25 3
-25 -18 0 -13 9 -55 19 -93 23 -82 48 -108 100 -103 34 3 36 1 39 -31 2 -19 1
-50 -3 -70 l-7 -35 -20 32 c-11 17 -36 41 -56 53 -20 13 -45 31 -55 41 -30 30
-40 23 -32 -24 4 -24 11 -64 14 -89 9 -60 33 -95 76 -113 50 -21 53 -51 16
-128 -16 -35 -44 -79 -61 -98 l-31 -35 8 35 c4 19 8 73 8 120 0 71 -5 95 -27
142 -41 88 -87 148 -124 164 -29 12 -39 12 -76 -2 -44 -17 -82 -50 -73 -64 3
-4 34 -11 70 -15 67 -7 86 -21 110 -80 11 -27 33 -226 27 -248 -6 -23 10 -28
-247 78 -229 95 -265 106 -265 82 0 -20 85 -96 141 -126 116 -62 159 -81 212
-95 64 -17 121 -42 137 -61 8 -10 -2 -19 -45 -39 -38 -19 -55 -33 -55 -47 0
-24 7 -24 65 1 72 31 100 55 166 141 61 80 77 91 99 64 26 -32 97 -10 142 43
26 31 65 139 54 150 -4 3 -15 1 -24 -6 -9 -7 -21 -14 -27 -15 -57 -19 -103
-36 -117 -42 -25 -10 -24 21 2 63 17 27 24 31 45 26 38 -9 70 3 83 31 15 32
16 65 2 65 -5 0 -10 -9 -10 -19 0 -11 -12 -29 -27 -40 l-26 -21 -24 22 c-25
24 -29 48 -11 66 8 8 8 15 0 25 -13 15 -5 114 10 123 5 4 15 1 21 -5 17 -17
52 -13 71 8 10 11 23 39 31 64 16 54 17 177 1 177 -15 0 -83 -45 -118 -78
l-28 -26 0 32 c0 25 -4 32 -19 32 -10 0 -21 9 -24 19 -7 27 3 34 18 14 12 -16
15 -16 50 2 47 26 58 47 50 98 -10 58 -76 172 -104 179 -13 3 -50 -114 -51
-159 0 -33 -15 -28 -39 13 -28 46 -27 53 11 85 l33 26 -25 53 c-30 64 -106
130 -151 130 -35 0 -37 -15 -10 -68 10 -20 21 -52 24 -70 l7 -33 -60 52 c-56
49 -60 54 -54 86 5 28 1 38 -29 68 -25 25 -44 35 -65 35 -17 0 -36 1 -44 3 -7
2 -40 1 -73 -1z m143 -46 c48 -25 70 -76 32 -76 -13 0 -20 -7 -20 -20 0 -22
-20 -26 -53 -9 -25 13 -127 110 -127 121 0 13 136 0 168 -16z m228 -87 c22
-17 44 -40 51 -52 28 -50 3 -114 -35 -90 -13 7 -82 152 -82 170 0 12 34 -2 66
-28z m203 -193 c17 -29 31 -66 31 -81 0 -62 -74 -89 -106 -40 -16 24 -16 29 0
77 9 27 16 58 16 67 0 19 8 31 21 31 4 0 21 -24 38 -54z m-235 -28 c71 -20
106 -66 77 -100 -8 -10 -23 -18 -31 -18 -29 0 -119 108 -103 124 8 8 9 8 57
-6z m126 -104 c0 -8 -4 -12 -10 -9 -5 3 -10 10 -10 16 0 5 5 9 10 9 6 0 10 -7
10 -16z m225 -101 c-4 -10 -10 -43 -12 -73 -8 -85 -47 -115 -90 -67 -32 36
-35 45 -18 76 24 48 139 108 120 64z m-246 -33 c53 -26 83 -66 79 -104 -3 -26
-8 -31 -33 -34 -24 -2 -37 4 -58 27 -15 17 -26 41 -25 53 0 13 -3 35 -7 51 -9
32 -6 33 44 7z m39 -290 c27 -40 31 -106 6 -96 -9 3 -25 6 -35 6 -33 0 -69 98
-60 164 2 14 64 -38 89 -74z m182 -190 c0 -23 -52 -91 -88 -114 l-37 -25 -17
21 c-38 43 -14 84 63 109 64 21 79 23 79 9z"/>
<path d="M2487 3863 c-16 -15 -4 -34 59 -94 173 -167 285 -377 348 -654 21
-90 21 -316 1 -360 -12 -27 -13 -28 -14 -7 -1 22 -25 106 -61 211 -23 67 -75
153 -119 200 -38 41 -49 31 -31 -26 18 -51 14 -254 -5 -328 -57 -218 -206
-360 -470 -447 -99 -33 -162 -47 -245 -54 -30 -3 -66 -8 -80 -13 -14 -4 -52
-9 -84 -10 -33 -1 -64 -5 -69 -8 -6 -3 -29 -5 -52 -5 -44 2 -93 -22 -65 -32 8
-2 29 -7 45 -9 17 -3 61 -11 100 -17 41 -7 97 -10 135 -6 36 4 81 8 100 10
151 16 269 49 395 109 113 55 201 127 265 219 56 80 83 156 101 283 22 156 40
89 42 -160 2 -187 -2 -199 -90 -290 -177 -182 -356 -254 -733 -295 -294 -33
-407 -64 -535 -150 -157 -105 -241 -246 -265 -443 -11 -90 -1 -229 21 -292 22
-63 75 -165 88 -170 21 -8 23 -1 10 46 -48 176 -59 322 -34 435 20 89 32 118
84 189 44 62 44 62 111 113 114 85 248 123 545 152 343 34 514 93 704 244 38
30 83 74 102 98 18 24 36 45 39 48 15 12 88 129 107 170 51 112 82 259 83 392
0 153 -55 366 -136 523 -51 101 -92 158 -185 260 -56 62 -61 70 -42 73 61 9
369 -125 499 -217 246 -174 370 -359 481 -721 19 -62 35 -95 44 -95 21 0 23
131 4 245 -74 435 -480 799 -975 875 -100 16 -212 20 -223 8z"/>
<path d="M1360 3716 c-425 -115 -812 -478 -994 -930 -83 -206 -123 -398 -135
-646 -8 -151 -9 -158 -51 -265 -61 -158 -71 -208 -71 -375 0 -174 24 -288 89
-419 84 -169 223 -322 346 -381 72 -34 136 -49 136 -32 0 6 -47 52 -104 102
-57 50 -125 117 -150 148 -44 54 -126 207 -160 299 -40 107 -62 265 -58 403 5
151 32 182 51 58 7 -46 16 -99 21 -118 5 -19 14 -57 21 -85 14 -61 38 -115 50
-115 12 0 12 72 0 102 -17 47 -27 490 -15 668 7 93 10 114 43 280 43 218 160
474 299 656 176 229 394 396 653 499 123 49 188 64 276 65 217 1 404 -111 493
-295 21 -44 47 -105 58 -135 10 -30 23 -55 28 -55 30 0 6 184 -37 271 -61 127
-213 255 -360 304 -93 30 -311 28 -429 -4z"/>
<path d="M1692 3280 c-39 -24 -55 -62 -49 -114 8 -55 44 -88 107 -96 59 -8 80
3 104 54 32 68 15 130 -44 161 -40 20 -79 19 -118 -5z"/>
<path d="M4740 3248 c-47 -3 -123 -6 -169 -7 -91 -1 -208 -19 -228 -34 -27
-20 -14 -56 29 -84 48 -32 -8 -30 559 -18 433 9 432 9 362 -54 -91 -83 -303
-264 -342 -293 l-42 -30 -117 45 c-165 64 -251 83 -288 65 -16 -7 -30 -23 -32
-34 -5 -33 76 -99 183 -149 52 -24 95 -48 95 -52 0 -4 -62 -51 -138 -105 -75
-53 -155 -112 -177 -131 l-40 -35 23 -25 c57 -60 107 -55 192 20 25 22 72 59
105 83 33 23 71 53 85 66 14 12 46 34 73 47 l47 26 68 -23 c93 -32 237 -94
426 -185 147 -69 166 -76 222 -76 37 0 68 6 78 14 24 20 20 73 -6 99 -40 36
-230 120 -540 237 -54 20 -98 40 -98 44 0 22 213 195 355 288 181 120 215 148
215 178 0 21 -50 75 -107 114 -31 21 -37 21 -370 19 -186 -2 -376 -6 -423 -10z"/>
<path d="M10513 3244 c-19 -8 -16 -21 11 -57 40 -54 66 -106 66 -135 -1 -107
-162 -405 -343 -632 -75 -94 -323 -341 -402 -399 -79 -59 -135 -112 -135 -128
0 -7 8 -17 18 -22 28 -15 138 44 265 142 44 34 91 71 106 81 14 11 59 49 99
84 62 55 75 62 88 51 27 -22 57 -91 71 -164 33 -175 0 -738 -50 -845 -31 -67
-38 -116 -26 -167 19 -80 38 -135 75 -210 54 -112 105 -138 132 -66 32 85 46
1064 17 1213 -28 146 -57 210 -121 275 l-47 46 30 32 c17 18 54 57 83 87 181
191 410 541 410 626 0 63 -56 116 -170 163 -54 22 -153 36 -177 25z"/>
<path d="M6991 3196 c-12 -14 -10 -22 11 -54 27 -41 37 -73 45 -144 4 -38 2
-49 -11 -54 -39 -15 -1 -69 80 -114 87 -50 146 2 148 130 1 78 -19 126 -70
168 -77 64 -179 97 -203 68z"/>
<path d="M8770 3190 c-14 -4 -45 -13 -70 -20 -25 -7 -76 -24 -115 -37 -250
-89 -371 -127 -510 -162 -22 -5 -58 -14 -80 -20 -22 -5 -79 -13 -127 -17 -49
-4 -96 -13 -105 -20 -16 -12 -17 -15 -3 -40 8 -15 32 -41 53 -58 76 -61 153
-45 687 139 58 20 114 40 125 45 35 14 160 50 177 50 53 0 47 -76 -24 -330
-44 -156 -71 -232 -124 -348 -13 -29 -24 -56 -24 -60 0 -15 -143 -292 -150
-290 -4 2 -43 35 -86 75 -81 73 -207 171 -234 181 -8 3 -33 17 -55 32 -56 37
-120 66 -194 90 -79 25 -208 27 -251 5 -60 -31 -23 -75 63 -75 92 0 231 -69
372 -184 114 -93 295 -264 295 -278 0 -25 -134 -203 -214 -282 -194 -196 -430
-341 -599 -371 -44 -7 -58 -30 -31 -50 22 -17 131 -20 181 -5 18 5 50 15 71
21 189 53 452 248 632 469 l75 91 20 -24 c11 -13 65 -80 120 -148 117 -145
360 -392 459 -466 78 -58 196 -122 271 -148 131 -45 282 -58 348 -30 44 18 97
81 97 116 0 36 -23 53 -105 79 -209 67 -351 137 -553 272 -180 120 -263 188
-405 332 -168 169 -160 147 -92 258 64 104 167 312 215 433 17 44 38 96 47
115 70 161 156 428 170 528 5 40 3 45 -34 80 -21 20 -58 43 -81 50 -46 13
-173 15 -212 2z"/>
<path d="M11290 3185 c-10 -12 -10 -27 0 -73 31 -141 34 -342 10 -607 -5 -55
-12 -165 -16 -244 -4 -80 -10 -156 -13 -169 -5 -19 -27 -33 -106 -67 -105 -44
-226 -90 -285 -107 -61 -18 -63 -48 -3 -48 41 0 255 51 333 80 30 11 55 18 57
16 2 -2 -1 -96 -6 -209 -16 -343 16 -458 167 -597 126 -116 230 -159 487 -202
54 -9 180 -13 395 -13 328 0 383 6 517 51 132 45 213 109 234 186 12 46 7 200
-9 253 -6 17 -15 50 -22 75 -37 134 -56 161 -94 140 -21 -11 -25 -24 -36 -109
-16 -130 -32 -187 -67 -251 -42 -75 -81 -93 -253 -120 -98 -15 -576 -12 -695
4 -257 36 -372 119 -434 315 -12 37 -13 394 -2 495 l6 59 120 54 c154 68 196
89 274 135 34 21 65 38 67 38 22 0 285 194 424 312 161 137 187 219 97 308
-79 77 -145 93 -172 40 -8 -16 -15 -40 -15 -54 0 -80 -119 -232 -293 -375
-130 -106 -481 -331 -494 -317 -4 3 -1 43 5 88 12 90 25 202 43 373 6 61 12
185 12 276 l2 165 -28 37 c-15 20 -47 46 -69 57 -50 24 -120 26 -138 5z"/>
<path d="M2539 3084 l-24 -26 28 7 c24 6 27 4 27 -18 0 -14 5 -29 10 -32 6 -4
10 13 10 44 0 59 -13 65 -51 25z"/>
<path d="M3734 2856 c-3 -9 1 -53 10 -99 65 -339 66 -572 4 -760 -76 -231
-236 -428 -485 -595 -86 -58 -358 -182 -399 -182 -6 0 -19 -9 -29 -20 -16 -18
-17 -20 -1 -26 24 -9 151 13 242 42 211 67 435 218 572 385 31 38 59 69 63 69
21 0 -88 -315 -148 -432 -35 -69 -61 -103 -119 -157 -152 -142 -355 -254 -584
-321 -130 -39 -302 -72 -447 -85 -40 -4 -73 -10 -73 -14 0 -3 18 -12 40 -19
47 -14 347 -17 382 -3 13 5 64 19 114 30 102 24 255 83 340 132 30 17 58 28
61 25 9 -9 -106 -116 -202 -188 -224 -167 -515 -282 -750 -295 -132 -7 -235
19 -338 86 -149 98 -225 227 -253 432 -7 54 -17 74 -33 65 -7 -5 -11 -46 -11
-111 0 -82 5 -116 21 -162 57 -151 169 -274 311 -341 102 -49 181 -64 323 -64
99 0 107 -1 83 -14 -48 -25 -217 -47 -358 -46 -323 2 -564 55 -814 178 -194
96 -366 238 -522 431 -108 134 -120 147 -133 138 -18 -11 98 -213 178 -310 58
-70 206 -206 287 -264 87 -61 292 -171 320 -171 8 0 22 -4 32 -10 27 -15 187
-56 297 -76 196 -36 555 -20 725 30 25 8 65 19 90 26 25 6 53 16 62 21 10 5
22 9 28 9 11 0 113 44 155 67 17 9 53 28 80 42 130 65 286 183 390 293 204
215 298 341 386 512 37 72 85 166 108 209 66 125 121 313 121 414 0 46 -15 65
-25 33 -3 -11 -10 -20 -14 -20 -11 0 -3 79 16 155 62 256 73 359 54 525 -15
131 -42 244 -85 350 -34 84 -61 116 -72 86z"/>
<path d="M1598 2707 c-78 -53 -145 -139 -188 -243 -31 -74 -32 -84 -26 -159 7
-99 27 -165 67 -229 45 -71 53 -52 39 88 -14 131 -10 176 24 250 12 28 29 67
36 86 8 19 43 79 78 132 57 87 69 118 42 118 -5 0 -37 -19 -72 -43z"/>
<path d="M6256 2421 c-42 -24 -64 -68 -65 -126 -1 -48 2 -54 47 -98 44 -44 51
-47 97 -46 95 1 143 53 144 155 1 54 -2 63 -26 85 -16 13 -38 30 -50 37 -32
17 -113 14 -147 -7z"/>
<path d="M6882 2288 c-8 -8 -12 -54 -12 -142 0 -72 -5 -167 -10 -211 -17 -129
-31 -217 -40 -260 -5 -22 -13 -67 -19 -100 -11 -63 -46 -257 -62 -338 -10 -51
3 -171 24 -217 33 -73 87 -89 171 -49 112 52 286 298 343 484 41 133 47 165
33 178 -9 9 -16 7 -30 -13 -204 -277 -263 -340 -320 -340 -22 0 -23 1 -16 108
3 59 10 231 15 382 11 312 3 459 -26 498 -23 31 -35 36 -51 20z"/>
<path d="M4575 2100 c-298 -14 -368 -34 -344 -97 4 -12 27 -33 51 -47 l44 -25
580 6 c415 4 583 3 588 -5 6 -10 -424 -385 -513 -446 l-40 -28 -128 50 c-236
94 -350 116 -392 78 -30 -27 -27 -40 21 -92 33 -36 73 -61 175 -110 73 -35
133 -68 133 -72 0 -14 -37 -43 -180 -142 -169 -118 -260 -190 -260 -206 0 -21
86 -74 120 -74 39 0 62 12 125 65 43 35 183 144 289 224 58 44 113 63 149 53
73 -21 387 -154 587 -250 69 -32 143 -68 165 -78 41 -19 129 -25 177 -11 42
11 62 49 49 90 -12 35 -66 73 -171 120 -30 14 -75 34 -100 45 -71 32 -337 136
-425 167 -100 35 -135 52 -135 68 1 6 26 32 57 57 32 25 84 70 118 101 67 62
223 175 358 259 117 72 177 125 177 155 0 29 -37 74 -99 119 l-49 36 -488 -2
c-269 0 -556 -4 -639 -8z"/>
<path d="M2566 1888 c-3 -13 -8 -66 -11 -119 -12 -186 -57 -271 -247 -461 -21
-20 -38 -42 -38 -48 0 -40 142 32 226 115 96 94 144 205 144 330 0 121 -58
263 -74 183z"/>
<path d="M1732 1503 c-57 -82 -87 -179 -79 -261 10 -113 66 -232 121 -258 28
-14 38 -14 81 -1 65 18 72 44 16 53 -49 8 -105 55 -120 103 -23 70 -5 266 24
278 7 2 34 -11 61 -29 27 -18 89 -55 137 -83 48 -27 124 -74 169 -102 45 -29
85 -53 90 -53 52 0 -122 163 -303 284 -79 53 -151 96 -161 96 -9 0 -25 -12
-36 -27z"/>
</g>
</svg>
